<svg xmlns="http://www.w3.org/2000/svg" version="1.1" xmlns:xlink="http://www.w3.org/1999/xlink" xmlns:svgjs="http://svgjs.dev/svgjs" width="2000" height="1247" viewBox="0 0 2000 1247"><g transform="matrix(1,0,0,1,-1.2121212121212466,168.04056834033884)"><svg viewBox="0 0 396 247" data-background-color="#ffffff" preserveAspectRatio="xMidYMid meet" height="1247" width="2000" xmlns="http://www.w3.org/2000/svg" xmlns:xlink="http://www.w3.org/1999/xlink"><g id="tight-bounds" transform="matrix(1,0,0,1,0.2400000000000091,-0.09999999999999432)"><svg viewBox="0 0 395.52 247.2" height="247.2" width="395.52"><g><svg></svg></g><g><svg viewBox="0 0 395.52 247.2" height="247.2" width="395.52"><g transform="matrix(1,0,0,1,75.54432,95.10332648379053)"><svg viewBox="0 0 244.43135999999998 56.993347032418946" height="56.993347032418946" width="244.43135999999998"><g><svg viewBox="0 0 244.43135999999998 56.993347032418946" height="56.993347032418946" width="244.43135999999998"><g><svg viewBox="0 0 244.43135999999998 56.993347032418946" height="56.993347032418946" width="244.43135999999998"><g><svg viewBox="0 0 244.43135999999998 56.993347032418946" height="56.993347032418946" width="244.43135999999998"><g><svg viewBox="0 0 244.43135999999998 56.993347032418946" height="56.993347032418946" width="244.43135999999998"><g><svg viewBox="0 0 244.43135999999998 56.993347032418946" height="56.993347032418946" width="244.43135999999998"><g transform="matrix(1,0,0,1,0,0)"><svg width="244.43135999999998" viewBox="0.5 -36.25 200.49000549316406 46.75" height="56.993347032418946" data-palette-color="#729343"><path d="M38.45 0L26.75 0 25.3-4.85 13.25-4.85 11.8 0 0.5 0 13.05-34.4 25.9-34.4 38.45 0ZM19.2-24.8L15.55-12.55 23-12.55 19.4-24.8 19.2-24.8ZM52.2 0L42.25 0 42.25-36.25 52.2-36.25 52.2 0ZM68.55-23.95Q71.4-27 75.95-27L75.95-27Q81.3-27 84.2-23.53 87.1-20.05 87.1-13.25L87.1-13.25Q87.1-6.4 84.2-2.9 81.3 0.6 75.95 0.6L75.95 0.6Q70.45 0.6 67.55-3.75L67.55-3.75 66.7 0 58.6 0 58.6-36.25 68.55-36.25 68.55-23.95ZM72.85-19.65Q70.65-19.65 69.55-18.07 68.45-16.5 68.45-14L68.45-14 68.45-12.35Q68.45-9.85 69.55-8.3 70.65-6.75 72.85-6.75L72.85-6.75Q77.15-6.75 77.15-11.85L77.15-11.85 77.15-14.5Q77.15-19.65 72.85-19.65L72.85-19.65ZM104.94-27Q110.99-27 114.79-24.98 118.59-22.95 118.59-18.4L118.59-18.4 118.59-8.1Q118.59-7.25 118.99-6.7 119.39-6.15 120.19-6.15L120.19-6.15 121.99-6.15 121.99-0.4Q121.84-0.3 121.22-0.08 120.59 0.15 119.44 0.38 118.29 0.6 116.79 0.6L116.79 0.6Q113.89 0.6 112.02-0.28 110.14-1.15 109.44-2.7L109.44-2.7Q107.54-1.2 105.19-0.3 102.84 0.6 99.69 0.6L99.69 0.6Q90.39 0.6 90.39-6.8L90.39-6.8Q90.39-10.65 92.47-12.68 94.54-14.7 98.44-15.45 102.34-16.2 108.64-16.2L108.64-16.2 108.64-17.5Q108.64-19.05 107.57-19.85 106.49-20.65 104.79-20.65L104.79-20.65Q103.24-20.65 102.12-20.1 100.99-19.55 100.99-18.35L100.99-18.35 100.99-18.15 91.19-18.15Q91.14-18.4 91.14-18.85L91.14-18.85Q91.14-22.6 94.72-24.8 98.29-27 104.94-27L104.94-27ZM108.64-11.5Q104.39-11.5 102.37-10.58 100.34-9.65 100.34-8.1L100.34-8.1Q100.34-5.6 103.74-5.6L103.74-5.6Q105.69-5.6 107.17-6.65 108.64-7.7 108.64-9.25L108.64-9.25 108.64-11.5ZM143.39-0.8Q141.34 4.75 138.37 7.63 135.39 10.5 130.04 10.5L130.04 10.5Q126.79 10.5 124.29 9.6L124.29 9.6 124.29 3.65 128.29 3.65Q132.04 3.65 132.74 0L132.74 0 122.24-26.4 132.94-26.4 137.99-8.85 138.34-8.85 142.99-26.4 152.79-26.4 143.39-0.8ZM166.09-29.5L156.14-29.5 156.14-36.25 166.09-36.25 166.09-29.5ZM166.09 0L156.14 0 156.14-26.4 166.09-26.4 166.09 0ZM186.09-27Q193.34-27 197.16-23.6 200.99-20.2 200.99-13.2L200.99-13.2 200.99-11.5 181.19-11.5Q181.19-8.65 182.46-7.2 183.74-5.75 186.49-5.75L186.49-5.75Q188.99-5.75 190.16-6.8 191.34-7.85 191.34-9.6L191.34-9.6 200.99-9.6Q200.99-4.8 197.34-2.1 193.69 0.6 186.69 0.6L186.69 0.6Q179.34 0.6 175.29-2.83 171.24-6.25 171.24-13.2L171.24-13.2Q171.24-20 175.19-23.5 179.14-27 186.09-27L186.09-27ZM186.49-20.65Q181.79-20.65 181.24-16.2L181.24-16.2 190.94-16.2Q190.94-18.25 189.76-19.45 188.59-20.65 186.49-20.65L186.49-20.65Z" opacity="1" transform="matrix(1,0,0,1,0,0)" fill="#729343" class="undefined-text-0" data-fill-palette-color="primary" id="text-0"></path></svg></g></svg></g></svg></g></svg></g><g></g></svg></g></svg></g></svg></g><g><path d="M82.97 81.649A122.216 122.216 0 0 1 312.55 81.649L307.41 81.649A117.076 117.076 0 0 0 88.11 81.649L82.97 81.649M82.97 165.551A122.216 122.216 0 0 0 312.55 165.551L307.41 165.551A117.076 117.076 0 0 1 88.11 165.551L82.97 165.551" fill="#729343" stroke="transparent" data-fill-palette-color="tertiary"></path></g></svg></g><defs></defs></svg><rect width="395.52" height="247.2" fill="none" stroke="none" visibility="hidden"></rect></g></svg></g></svg>